<svg width="21" height="21" viewBox="0 0 21 21" fill="none" xmlns="http://www.w3.org/2000/svg">
<path fill-rule="evenodd" clip-rule="evenodd" d="M0.84 13.4042C1.30392 13.4042 1.68 13.8043 1.68 14.2979V14.7447C1.68 17.2123 2.52 19.2127 4.8396 19.2127H14.7C18.48 19.2127 18.9 17.2123 18.9 14.7447V14.2979C18.9 13.8043 19.2761 13.4042 19.74 13.4042C20.2039 13.4042 20.58 13.8043 20.58 14.2979V14.7447C20.58 18.1994 19.74 21 14.7 21H4.92743C1.68 21 0 18.1994 0 14.7447V14.2979C0 13.8043 0.376081 13.4042 0.84 13.4042Z" fill="#9090A7"/>
<path fill-rule="evenodd" clip-rule="evenodd" d="M0 8.93617C0 5.48145 2.63257 2.68085 5.88 2.68085H15.12C18.3674 2.68085 21 5.48145 21 8.93617V9.15024C21 10.1826 20.4427 11.1233 19.5673 11.5687L13.037 14.8913C11.4327 15.7075 9.56733 15.7075 7.96304 14.8913L1.43273 11.5687C0.557254 11.1233 0 10.1826 0 9.15024V8.93617ZM5.88 4.46808C3.5604 4.46808 1.68 6.46851 1.68 8.93617V9.15024C1.68 9.49437 1.86575 9.80792 2.15758 9.9564L8.68789 13.2789C9.83381 13.862 11.1662 13.862 12.3121 13.2789L18.8424 9.9564C19.1342 9.80792 19.32 9.49437 19.32 9.15024V8.93617C19.32 6.46851 17.4396 4.46808 15.12 4.46808H5.88Z" fill="#9090A7"/>
<path fill-rule="evenodd" clip-rule="evenodd" d="M5.04004 3.57447C5.04004 1.60034 6.54436 0 8.40004 0H12.6C14.4557 0 15.96 1.60034 15.96 3.57447H15.12V4.46808H5.88004V3.57447H5.04004ZM6.94479 2.68085H14.0553C13.7648 2.14665 13.2219 1.78723 12.6 1.78723H8.40004C7.7782 1.78723 7.23527 2.14665 6.94479 2.68085Z" fill="#9090A7"/>
</svg>
